<svg xmlns="http://www.w3.org/2000/svg" width="24" height="24" viewBox="0 0 24 24" fill="#8D493A">
  <path d="M19.43 12.98c.04-.32.07-.66.07-1s-.03-.68-.07-1l2.11-1.65a.5.5 0 0 0 .12-.63l-2-3.46a.5.5 0 0 0-.6-.22l-2.49 1a7.007 7.007 0 0 0-1.5-.88l-.38-2.65A.5.5 0 0 0 14 2h-4a.5.5 0 0 0-.5.42l-.38 2.65c-.53.2-1.03.48-1.5.88l-2.49-1a.5.5 0 0 0-.6.22l-2 3.46a.5.5 0 0 0 .12.63L4.57 11c-.04.32-.07.66-.07 1s.03.68.07 1l-2.11 1.65a.5.5 0 0 0-.12.63l2 3.46c.14.24.43.33.68.22l2.49-1c.47.4.97.68 1.5.88l.38 2.65c.05.25.26.42.5.42h4c.24 0 .45-.17.5-.42l.38-2.65c.53-.2 1.03-.48 1.5-.88l2.49 1c.25.11.54.02.68-.22l2-3.46a.5.5 0 0 0-.12-.63L19.43 12.98zM12 15.5a3.5 3.5 0 1 1 0-7 3.5 3.5 0 0 1 0 7z"></path>
</svg>
